<?xml version="1.0" encoding="UTF-8" standalone="no"?>
<svg xmlns="http://www.w3.org/2000/svg" xmlns:svg="http://www.w3.org/2000/svg" viewBox="0 0 32 32">
	<g>
		<path fill="#333333" class="Black" d="m 3.6210938,19.125 v -0.588867 q -0.4438477,0.694336 -1.3051758,0.694336 -0.5581055,0 -1.0283203,-0.307617 Q 0.82177734,18.615234 0.5625,18.065918 0.30761719,17.512207 0.30761719,16.795898 q 0,-0.69873 0.23291015,-1.265625 0.23291016,-0.571289 0.69873046,-0.874511 0.4658203,-0.303223 1.0415039,-0.303223 0.421875,0 0.7514649,0.180176 0.3295898,0.175781 0.5361328,0.461426 V 12.682617 H 4.3549805 V 19.125 Z M 1.1206055,16.795898 q 0,0.896485 0.3779297,1.340332 0.3779296,0.443848 0.8920898,0.443848 0.5185547,0 0.8789063,-0.421875 0.364746,-0.426269 0.364746,-1.296387 0,-0.958007 -0.3691406,-1.40625 -0.3691406,-0.448242 -0.9096679,-0.448242 -0.5273438,0 -0.8833008,0.430664 -0.3515625,0.430664 -0.3515625,1.35791 z" />
		<path fill="#333333" class="Black" d="m 8.793457,17.62207 0.8173828,0.101075 q -0.1933593,0.716308 -0.7163085,1.111816 -0.5229493,0.395508 -1.3359376,0.395508 -1.0239257,0 -1.6259765,-0.628418 -0.5976563,-0.632813 -0.5976563,-1.770996 0,-1.177735 0.6064453,-1.828125 0.6064454,-0.650391 1.5732422,-0.650391 0.9360352,0 1.5292969,0.637207 0.5932617,0.637207 0.5932617,1.792969 0,0.07031 -0.00439,0.210937 H 6.1523437 q 0.043945,0.769043 0.4350586,1.177735 0.3911133,0.408691 0.975586,0.408691 0.4350586,0 0.7426758,-0.228516 Q 8.6132813,18.123047 8.793457,17.62207 Z M 6.1962891,16.343262 h 2.605957 Q 8.7495117,15.754395 8.503418,15.459961 8.1254883,15.00293 7.5234375,15.00293 q -0.5449219,0 -0.918457,0.364746 -0.3691407,0.364746 -0.4086914,0.975586 z" />
		<path fill="#333333" class="Black" d="M 11.900391,19.125 10.125,14.458008 h 0.834961 l 1.001953,2.794922 q 0.162598,0.452636 0.298828,0.940429 0.105469,-0.36914 0.294434,-0.887695 l 1.037109,-2.847656 h 0.812988 L 12.638672,19.125 Z" />
	</g>
	<g>
		<path fill="#dd1616" class="Red" d="m 18.131672,18.549316 q -0.439453,0.373536 -0.848145,0.527344 -0.404297,0.153809 -0.870117,0.153809 -0.769043,0 -1.182129,-0.373535 -0.413086,-0.37793 -0.413086,-0.962403 0,-0.342773 0.153809,-0.624023 0.158203,-0.285645 0.408691,-0.457031 0.254883,-0.171387 0.571289,-0.259278 0.232911,-0.06152 0.703125,-0.118652 0.958008,-0.114258 1.410645,-0.272461 0.0044,-0.162598 0.0044,-0.206543 0,-0.483398 -0.224121,-0.681152 -0.303222,-0.268067 -0.900879,-0.268067 -0.558105,0 -0.826171,0.197754 -0.263672,0.19336 -0.391114,0.689942 l -0.773437,-0.105469 q 0.105469,-0.496582 0.347168,-0.799805 0.241699,-0.307617 0.69873,-0.470215 0.457031,-0.166992 1.059082,-0.166992 0.597657,0 0.971192,0.140625 0.373535,0.140625 0.549316,0.355957 0.175781,0.210938 0.246094,0.536133 0.03955,0.202148 0.03955,0.729492 v 1.054688 q 0,1.103027 0.04834,1.397461 0.05274,0.290039 0.202149,0.558105 h -0.826172 q -0.123047,-0.246094 -0.158203,-0.575684 z m -0.06592,-1.766601 q -0.430664,0.175781 -1.291992,0.298828 -0.487793,0.07031 -0.689942,0.158203 -0.202148,0.08789 -0.312011,0.259277 -0.109864,0.166993 -0.109864,0.373536 0,0.316406 0.237305,0.527343 0.241699,0.210938 0.703125,0.210938 0.457031,0 0.812988,-0.197754 0.355957,-0.202149 0.52295,-0.549316 0.127441,-0.268067 0.127441,-0.791016 z" />
		<path fill="#dd1616" class="Red" d="m 20.082844,19.125 v -4.666992 h 0.711914 v 0.707519 q 0.272461,-0.496582 0.500976,-0.654785 0.232911,-0.158203 0.509766,-0.158203 0.399902,0 0.812988,0.254883 l -0.272461,0.733887 q -0.290039,-0.171387 -0.580078,-0.171387 -0.259277,0 -0.46582,0.158203 -0.206543,0.153809 -0.294434,0.430664 -0.131836,0.421875 -0.131836,0.922852 V 19.125 Z" />
		<path fill="#dd1616" class="Red" d="m 26.283527,17.62207 0.817383,0.101075 q -0.193359,0.716308 -0.716308,1.111816 -0.52295,0.395508 -1.335938,0.395508 -1.023926,0 -1.625976,-0.628418 -0.597657,-0.632813 -0.597657,-1.770996 0,-1.177735 0.606446,-1.828125 0.606445,-0.650391 1.573242,-0.650391 0.936035,0 1.529297,0.637207 0.593261,0.637207 0.593261,1.792969 0,0.07031 -0.0044,0.210937 h -3.480469 q 0.04395,0.769043 0.435059,1.177735 0.391113,0.408691 0.975586,0.408691 0.435058,0 0.742675,-0.228516 0.307618,-0.228515 0.487793,-0.729492 z m -2.597168,-1.278808 h 2.605957 q -0.05273,-0.588867 -0.298828,-0.883301 -0.377929,-0.457031 -0.97998,-0.457031 -0.544922,0 -0.918457,0.364746 -0.369141,0.364746 -0.408692,0.975586 z" />
		<path fill="#dd1616" class="Red" d="m 27.777668,17.731934 0.782227,-0.123047 q 0.06592,0.470215 0.364746,0.720703 0.303222,0.250488 0.84375,0.250488 0.544922,0 0.808593,-0.219726 0.263672,-0.224122 0.263672,-0.52295 0,-0.268066 -0.23291,-0.421875 -0.162598,-0.105468 -0.808594,-0.268066 -0.870117,-0.219727 -1.208496,-0.37793 -0.333984,-0.162597 -0.509765,-0.443847 -0.171387,-0.285645 -0.171387,-0.628418 0,-0.312012 0.140625,-0.575684 0.145019,-0.268066 0.391113,-0.443848 0.184571,-0.13623 0.500977,-0.228515 0.320801,-0.09668 0.685547,-0.09668 0.549316,0 0.962402,0.158203 0.41748,0.158203 0.615234,0.430664 0.197754,0.268067 0.272461,0.720703 l -0.773437,0.105469 q -0.05274,-0.360351 -0.307617,-0.5625 -0.250489,-0.202148 -0.711914,-0.202148 -0.544922,0 -0.777832,0.180175 -0.232911,0.180176 -0.232911,0.421875 0,0.153809 0.09668,0.276856 0.09668,0.127441 0.303223,0.210937 0.118652,0.04395 0.69873,0.202149 0.839356,0.224121 1.168945,0.36914 0.333985,0.140625 0.52295,0.413086 0.188965,0.272461 0.188965,0.676758 0,0.395508 -0.232911,0.747071 -0.228515,0.347168 -0.663574,0.540527 -0.435058,0.188965 -0.984375,0.188965 -0.909668,0 -1.388672,-0.37793 -0.474609,-0.37793 -0.606445,-1.120605 z" />
	</g>
</svg>
