<?xml version="1.0" encoding="UTF-8" standalone="no"?>
<svg  xmlns="http://www.w3.org/2000/svg" xmlns:svg="http://www.w3.org/2000/svg" viewBox="0 0 32 32">
	<g>
		<path fill="#333333" class="Black" d="m 1.3394375,17.273001 v -0.235547 q -0.1775391,0.277734 -0.52207033,0.277734 -0.22324219,0 -0.41132812,-0.123047 Q 0.21971093,17.069094 0.116,16.849368 0.01404687,16.627884 0.01404687,16.34136 q 0,-0.279492 0.09316406,-0.50625 0.0931641,-0.228515 0.27949218,-0.349805 0.18632812,-0.121289 0.41660156,-0.121289 0.16874999,0 0.30058593,0.07207 0.1318359,0.07031 0.2144531,0.18457 v -0.924609 h 0.3146484 v 2.576953 z M 0.33924218,16.34136 q 0,0.358594 0.15117187,0.536133 0.15117187,0.177539 0.35683593,0.177539 0.20742182,0 0.35156252,-0.16875 0.1458984,-0.170508 0.1458984,-0.518555 0,-0.383203 -0.1476562,-0.5625 -0.1476563,-0.179297 -0.36386722,-0.179297 -0.2109375,0 -0.35332031,0.172266 -0.14062499,0.172266 -0.14062499,0.543164 z" />
		<path fill="#333333" class="Black" d="m 3.4083827,16.671829 0.3269531,0.04043 q -0.077344,0.286523 -0.2865234,0.444726 -0.2091797,0.158203 -0.534375,0.158203 -0.4095703,0 -0.6503906,-0.251367 -0.2390625,-0.253125 -0.2390625,-0.708398 0,-0.471094 0.2425781,-0.73125 0.2425782,-0.260157 0.6292969,-0.260157 0.3744141,0 0.6117187,0.254883 0.2373047,0.254883 0.2373047,0.717188 0,0.02812 -0.00176,0.08438 H 2.3519374 q 0.017578,0.307617 0.1740235,0.471093 0.1564453,0.163477 0.3902343,0.163477 0.1740235,0 0.2970703,-0.09141 0.1230469,-0.09141 0.1951172,-0.291797 z M 2.3695156,16.160305 h 1.0423828 q -0.021094,-0.235546 -0.1195313,-0.35332 -0.1511719,-0.182812 -0.3919922,-0.182812 -0.2179687,0 -0.3673828,0.145898 -0.1476562,0.145899 -0.1634765,0.390234 z" />
		<path fill="#333333" class="Black" d="M 4.6511561,17.273001 3.9409999,15.406204 h 0.3339844 l 0.4007812,1.117969 q 0.065039,0.181054 0.1195313,0.376171 0.042187,-0.147656 0.1177734,-0.355078 l 0.4148437,-1.139062 h 0.3251953 l -0.7066406,1.866797 z" />
		<path fill="#333333" class="Black" d="m 7.2105308,16.671829 0.3269531,0.04043 q -0.077344,0.286523 -0.2865234,0.444726 -0.2091797,0.158203 -0.534375,0.158203 -0.4095703,0 -0.6503906,-0.251367 -0.2390625,-0.253125 -0.2390625,-0.708398 0,-0.471094 0.2425781,-0.73125 0.2425782,-0.260157 0.6292969,-0.260157 0.3744141,0 0.6117187,0.254883 0.2373047,0.254883 0.2373047,0.717188 0,0.02812 -0.00176,0.08438 H 6.1540855 q 0.017578,0.307617 0.1740235,0.471093 0.1564453,0.163477 0.3902343,0.163477 0.1740235,0 0.2970703,-0.09141 0.1230469,-0.09141 0.1951172,-0.291797 z M 6.1716637,16.160305 H 7.2140465 Q 7.1929527,15.924759 7.0945152,15.806985 6.9433433,15.624173 6.702523,15.624173 q -0.2179687,0 -0.3673828,0.145898 -0.1476562,0.145899 -0.1634765,0.390234 z" />
		<path fill="#333333" class="Black" d="m 7.9277186,17.273001 v -2.576953 h 0.3164062 v 2.576953 z" />
		<path fill="#333333" class="Black" d="m 8.6167811,16.339602 q 0,-0.518554 0.2882812,-0.768164 0.2408203,-0.207422 0.5871094,-0.207422 0.3849609,0 0.6292973,0.253125 0.244335,0.251368 0.244335,0.696094 0,0.360352 -0.108984,0.567774 -0.107226,0.205664 -0.3146484,0.319921 -0.205664,0.114258 -0.4499999,0.114258 -0.3919922,0 -0.6345703,-0.251367 -0.2408203,-0.251367 -0.2408203,-0.724219 z m 0.3251953,0 q 0,0.358594 0.1564453,0.537891 0.1564453,0.177539 0.39375,0.177539 0.2355468,0 0.3919921,-0.179297 0.1564452,-0.179297 0.1564452,-0.54668 0,-0.346289 -0.158203,-0.523828 -0.1564453,-0.179297 -0.3902343,-0.179297 -0.2373047,0 -0.39375,0.17754 -0.1564453,0.177539 -0.1564453,0.536132 z" />
		<path fill="#333333" class="Black" d="m 10.736703,17.98843 v -2.582226 h 0.288281 v 0.242578 q 0.101953,-0.142383 0.230274,-0.212695 0.12832,-0.07207 0.311133,-0.07207 0.239062,0 0.421875,0.123047 0.182812,0.123047 0.275976,0.348047 0.09316,0.223242 0.09316,0.49043 0,0.286523 -0.103711,0.516797 -0.101953,0.228515 -0.298828,0.351562 -0.195117,0.121289 -0.411328,0.121289 -0.158203,0 -0.284766,-0.0668 -0.124804,-0.0668 -0.205664,-0.16875 v 0.908789 z m 0.286524,-1.638281 q 0,0.360352 0.145898,0.532617 0.145898,0.172266 0.35332,0.172266 0.210938,0 0.360352,-0.177539 0.151172,-0.179297 0.151172,-0.553711 0,-0.356836 -0.147657,-0.534375 -0.145898,-0.177539 -0.349804,-0.177539 -0.202149,0 -0.358594,0.189844 -0.154687,0.188086 -0.154687,0.548437 z" />
		<path fill="#333333" class="Black" d="m 14.95721,17.042727 q -0.175781,0.149414 -0.339257,0.210938 -0.161719,0.06152 -0.348047,0.06152 -0.307618,0 -0.472852,-0.149414 -0.165234,-0.151172 -0.165234,-0.384961 0,-0.137109 0.06152,-0.249609 0.06328,-0.114258 0.163477,-0.182813 0.101953,-0.06855 0.228515,-0.103711 0.09316,-0.02461 0.28125,-0.04746 0.383203,-0.0457 0.564258,-0.108984 0.0018,-0.06504 0.0018,-0.08262 0,-0.193359 -0.08965,-0.272461 -0.12129,-0.107227 -0.360352,-0.107227 -0.223242,0 -0.330469,0.0791 -0.105469,0.07734 -0.156445,0.275977 l -0.309375,-0.04219 q 0.04219,-0.198633 0.138867,-0.319922 0.09668,-0.123047 0.279492,-0.188086 0.182813,-0.0668 0.423633,-0.0668 0.239063,0 0.388477,0.05625 0.149414,0.05625 0.219726,0.142383 0.07031,0.08437 0.09844,0.214453 0.01582,0.08086 0.01582,0.291797 v 0.421875 q 0,0.441211 0.01934,0.558985 0.02109,0.116015 0.08086,0.223242 h -0.330468 q -0.04922,-0.09844 -0.06328,-0.230274 z m -0.02637,-0.70664 q -0.172265,0.07031 -0.516797,0.119531 -0.195117,0.02812 -0.275976,0.06328 -0.08086,0.03516 -0.124805,0.103711 -0.04395,0.0668 -0.04395,0.149414 0,0.126563 0.09492,0.210938 0.09668,0.08437 0.28125,0.08437 0.182812,0 0.325195,-0.0791 0.142383,-0.08086 0.20918,-0.219726 0.05098,-0.107227 0.05098,-0.316407 z" />
		<path fill="#333333" class="Black" d="m 15.741195,17.273001 v -1.866797 h 0.284766 v 0.26543 q 0.205664,-0.307618 0.59414,-0.307618 0.16875,0 0.309375,0.06152 0.142383,0.05977 0.212695,0.158203 0.07031,0.09844 0.09844,0.233789 0.01758,0.08789 0.01758,0.307617 v 1.147852 h -0.316406 v -1.135547 q 0,-0.193359 -0.03691,-0.288281 -0.03691,-0.09668 -0.131836,-0.15293 -0.09316,-0.05801 -0.219727,-0.05801 -0.202148,0 -0.349804,0.12832 -0.145899,0.128321 -0.145899,0.486914 v 1.019532 z" />
		<path fill="#333333" class="Black" d="m 18.954475,17.273001 v -0.235547 q -0.177539,0.277734 -0.52207,0.277734 -0.223242,0 -0.411328,-0.123047 -0.186328,-0.123047 -0.290039,-0.342773 -0.101953,-0.221484 -0.101953,-0.508008 0,-0.279492 0.09316,-0.50625 0.09316,-0.228515 0.279492,-0.349805 0.186328,-0.121289 0.416602,-0.121289 0.16875,0 0.300586,0.07207 0.131835,0.07031 0.214453,0.18457 v -0.924609 h 0.314648 v 2.576953 z M 17.95428,16.34136 q 0,0.358594 0.151172,0.536133 0.151172,0.177539 0.356836,0.177539 0.207422,0 0.351562,-0.16875 0.145899,-0.170508 0.145899,-0.518555 0,-0.383203 -0.147656,-0.5625 -0.147657,-0.179297 -0.363868,-0.179297 -0.210937,0 -0.35332,0.172266 -0.140625,0.172266 -0.140625,0.543164 z" />
		<path fill="#333333" class="Black" d="m 20.742171,17.273001 v -1.866797 h 0.284766 v 0.283008 q 0.108984,-0.198633 0.20039,-0.261914 0.09316,-0.06328 0.203907,-0.06328 0.159961,0 0.325195,0.101954 l -0.108984,0.293554 q -0.116016,-0.06855 -0.232032,-0.06855 -0.103711,0 -0.186328,0.06328 -0.08262,0.06152 -0.117773,0.172265 -0.05274,0.16875 -0.05274,0.369141 v 0.977344 z" />
		<path fill="#333333" class="Black" d="m 23.222444,16.671829 0.326953,0.04043 q -0.07734,0.286523 -0.286523,0.444726 -0.20918,0.158203 -0.534375,0.158203 -0.40957,0 -0.650391,-0.251367 -0.239062,-0.253125 -0.239062,-0.708398 0,-0.471094 0.242578,-0.73125 0.242578,-0.260157 0.629297,-0.260157 0.374414,0 0.611718,0.254883 0.237305,0.254883 0.237305,0.717188 0,0.02812 -0.0018,0.08438 h -1.392187 q 0.01758,0.307617 0.174023,0.471093 0.156446,0.163477 0.390235,0.163477 0.174023,0 0.29707,-0.09141 0.123047,-0.09141 0.195117,-0.291797 z m -1.038867,-0.511524 h 1.042383 q -0.02109,-0.235546 -0.119531,-0.35332 -0.151172,-0.182812 -0.391993,-0.182812 -0.217968,0 -0.367382,0.145898 -0.147657,0.145899 -0.163477,0.390234 z" />
		<path fill="#333333" class="Black" d="m 23.820102,16.715774 0.31289,-0.04922 q 0.02637,0.188086 0.145899,0.288282 0.121289,0.100195 0.3375,0.100195 0.217968,0 0.323437,-0.08789 0.105469,-0.08965 0.105469,-0.209179 0,-0.107227 -0.09316,-0.16875 -0.06504,-0.04219 -0.323438,-0.107227 -0.348047,-0.08789 -0.483398,-0.151172 -0.133594,-0.06504 -0.203906,-0.177539 -0.06855,-0.114258 -0.06855,-0.251367 0,-0.124805 0.05625,-0.230273 0.05801,-0.107227 0.156445,-0.177539 0.07383,-0.05449 0.200391,-0.09141 0.12832,-0.03867 0.274219,-0.03867 0.219726,0 0.384961,0.06328 0.166992,0.06328 0.246093,0.172265 0.0791,0.107227 0.108985,0.288282 l -0.309375,0.04219 q -0.02109,-0.144141 -0.123047,-0.225 -0.100196,-0.08086 -0.284766,-0.08086 -0.217969,0 -0.311133,0.07207 -0.09316,0.07207 -0.09316,0.16875 0,0.06152 0.03867,0.110742 0.03867,0.05098 0.121289,0.08438 0.04746,0.01758 0.279492,0.08086 0.335743,0.08965 0.467579,0.147657 0.133593,0.05625 0.209179,0.165234 0.07559,0.108984 0.07559,0.270703 0,0.158203 -0.09316,0.298828 -0.09141,0.138868 -0.26543,0.216211 -0.174023,0.07559 -0.39375,0.07559 -0.363867,0 -0.555468,-0.151172 -0.189844,-0.151172 -0.242578,-0.448242 z" />
		<path fill="#333333" class="Black" d="m 25.62889,16.339602 q 0,-0.518554 0.288281,-0.768164 0.24082,-0.207422 0.587109,-0.207422 0.384961,0 0.629297,0.253125 0.244336,0.251368 0.244336,0.696094 0,0.360352 -0.108984,0.567774 -0.107227,0.205664 -0.314649,0.319921 -0.205664,0.114258 -0.45,0.114258 -0.391992,0 -0.63457,-0.251367 -0.24082,-0.251367 -0.24082,-0.724219 z m 0.325195,0 q 0,0.358594 0.156445,0.537891 0.156446,0.177539 0.39375,0.177539 0.235547,0 0.391993,-0.179297 0.156445,-0.179297 0.156445,-0.54668 0,-0.346289 -0.158203,-0.523828 -0.156445,-0.179297 -0.390235,-0.179297 -0.237304,0 -0.39375,0.17754 -0.156445,0.177539 -0.156445,0.536132 z" />
		<path fill="#333333" class="Black" d="m 27.74178,17.273001 v -2.576953 h 0.316406 v 2.576953 z" />
		<path fill="#333333" class="Black" d="m 29.06717,17.273001 -0.710156,-1.866797 h 0.333984 l 0.400782,1.117969 q 0.06504,0.181054 0.119531,0.376171 0.04219,-0.147656 0.117773,-0.355078 l 0.414844,-1.139062 h 0.325195 l -0.70664,1.866797 z" />
		<path fill="#333333" class="Black" d="m 31.626546,16.671829 0.326954,0.04043 q -0.07734,0.286523 -0.286524,0.444726 -0.20918,0.158203 -0.534375,0.158203 -0.40957,0 -0.65039,-0.251367 -0.239063,-0.253125 -0.239063,-0.708398 0,-0.471094 0.242578,-0.73125 0.242578,-0.260157 0.629297,-0.260157 0.374414,0 0.611719,0.254883 0.237304,0.254883 0.237304,0.717188 0,0.02812 -0.0018,0.08438 h -1.392188 q 0.01758,0.307617 0.174024,0.471093 0.156445,0.163477 0.390234,0.163477 0.174023,0 0.29707,-0.09141 0.123047,-0.09141 0.195117,-0.291797 z m -1.038867,-0.511524 h 1.042383 q -0.02109,-0.235546 -0.119531,-0.35332 -0.151172,-0.182812 -0.391992,-0.182812 -0.217969,0 -0.367383,0.145898 -0.147656,0.145899 -0.163477,0.390234 z" />
	</g>
</svg>